<svg width="427" height="187" viewBox="0 0 427 187" fill="none" xmlns="http://www.w3.org/2000/svg">
<g filter="url(#filter0_d_560_36)">
<path d="M-198.835 76.171C-198.835 76.171 -166.42 172.699 -130.644 172.612C-94.8683 172.526 -67.8253 85.5606 -67.8253 85.5606C-67.8253 85.5606 -49.3846 9.38504 -14.6609 9.30118C20.0629 9.21732 39.7062 84.2729 39.7062 84.2729C39.7062 84.2729 63.8087 172.143 101.058 172.053C138.307 171.963 161.758 82.8113 161.758 82.8113C161.758 82.8113 182.738 8.82443 212.832 8.75175C242.926 8.67907 265.969 85.8266 265.969 85.8266C265.969 85.8266 289.965 171.597 324.132 171.514C358.299 171.432 376.466 82.8112 376.466 82.8112C376.466 82.8112 386.013 4.71411 426.534 6.30329" stroke="black" stroke-width="12"/>
</g>
<defs>
<filter id="filter0_d_560_36" x="-223.522" y="0.279053" width="650.291" height="186.333" filterUnits="userSpaceOnUse" color-interpolation-filters="sRGB">
<feFlood flood-opacity="0" result="BackgroundImageFix"/>
<feColorMatrix in="SourceAlpha" type="matrix" values="0 0 0 0 0 0 0 0 0 0 0 0 0 0 0 0 0 0 127 0" result="hardAlpha"/>
<feOffset dx="-15" dy="4"/>
<feGaussianBlur stdDeviation="2"/>
<feComposite in2="hardAlpha" operator="out"/>
<feColorMatrix type="matrix" values="0 0 0 0 0 0 0 0 0 0 0 0 0 0 0 0 0 0 0.25 0"/>
<feBlend mode="normal" in2="BackgroundImageFix" result="effect1_dropShadow_560_36"/>
<feBlend mode="normal" in="SourceGraphic" in2="effect1_dropShadow_560_36" result="shape"/>
</filter>
</defs>
</svg>
